<?xml version="1.0" encoding="utf-8" standalone="no"?>
<!DOCTYPE svg PUBLIC "-//W3C//DTD SVG 1.1//EN"
  "http://www.w3.org/Graphics/SVG/1.1/DTD/svg11.dtd">
<svg xmlns:xlink="http://www.w3.org/1999/xlink" width="291.6pt" height="291.6pt" viewBox="0 0 291.6 291.6" xmlns="http://www.w3.org/2000/svg" version="1.1">
 <metadata>
  <rdf:RDF xmlns:dc="http://purl.org/dc/elements/1.1/" xmlns:cc="http://creativecommons.org/ns#" xmlns:rdf="http://www.w3.org/1999/02/22-rdf-syntax-ns#">
   <cc:Work>
    <dc:type rdf:resource="http://purl.org/dc/dcmitype/StillImage"/>
    <dc:date>2022-10-20T23:37:58.306543</dc:date>
    <dc:format>image/svg+xml</dc:format>
    <dc:creator>
     <cc:Agent>
      <dc:title>Matplotlib v3.6.1, https://matplotlib.org/</dc:title>
     </cc:Agent>
    </dc:creator>
   </cc:Work>
  </rdf:RDF>
 </metadata>
 <defs>
  <style type="text/css">*{stroke-linejoin: round; stroke-linecap: butt}</style>
 </defs>
 <g id="figure_1">
  <g id="patch_1">
   <path d="M 0 291.6 
L 291.6 291.6 
L 291.6 0 
L 0 0 
z
" style="fill: #ffffff"/>
  </g>
  <g id="axes_1">
   <g id="patch_2">
    <path d="M 200.152941 227.329412 
C 221.774794 227.329412 242.513982 218.738959 257.802941 203.45 
C 273.0919 188.161041 281.682353 167.421853 281.682353 145.8 
C 281.682353 124.178147 273.0919 103.438959 257.802941 88.15 
C 242.513982 72.861041 221.774794 64.270588 200.152941 64.270588 
C 178.531088 64.270588 157.7919 72.861041 142.502941 88.15 
C 127.213983 103.438959 118.623529 124.178147 118.623529 145.8 
C 118.623529 167.421853 127.213983 188.161041 142.502941 203.45 
C 157.7919 218.738959 178.531088 227.329412 200.152941 227.329412 
z
" clip-path="url(#p96acb696db)" style="fill: #8000ff; opacity: 0.5; stroke: #8000ff; stroke-linejoin: miter"/>
   </g>
   <g id="patch_3">
    <path d="M 162.595983 175.636693 
C 184.217835 175.636693 204.957024 167.04624 220.245982 151.757281 
C 235.534941 136.468322 244.125394 115.729134 244.125394 94.107281 
C 244.125394 72.485428 235.534941 51.74624 220.245982 36.457281 
C 204.957024 21.168322 184.217835 12.577869 162.595983 12.577869 
C 140.97413 12.577869 120.234941 21.168322 104.945983 36.457281 
C 89.657024 51.74624 81.066571 72.485428 81.066571 94.107281 
C 81.066571 115.729134 89.657024 136.468322 104.945983 151.757281 
C 120.234941 167.04624 140.97413 175.636693 162.595983 175.636693 
z
" clip-path="url(#p96acb696db)" style="fill: #00b4ec; opacity: 0.5; stroke: #00b4ec; stroke-linejoin: miter"/>
   </g>
   <g id="patch_4">
    <path d="M 101.827547 195.381555 
C 123.4494 195.381555 144.188588 186.791101 159.477547 171.502143 
C 174.766506 156.213184 183.356959 135.473995 183.356959 113.852143 
C 183.356959 92.23029 174.766506 71.491102 159.477547 56.202143 
C 144.188588 40.913184 123.4494 32.322731 101.827547 32.322731 
C 80.205694 32.322731 59.466506 40.913184 44.177547 56.202143 
C 28.888588 71.491102 20.298135 92.23029 20.298135 113.852143 
C 20.298135 135.473995 28.888588 156.213184 44.177547 171.502143 
C 59.466506 186.791101 80.205694 195.381555 101.827547 195.381555 
z
" clip-path="url(#p96acb696db)" style="fill: #80ffb4; opacity: 0.5; stroke: #80ffb4; stroke-linejoin: miter"/>
   </g>
   <g id="patch_5">
    <path d="M 101.827547 259.277269 
C 123.4494 259.277269 144.188588 250.686816 159.477547 235.397857 
C 174.766506 220.108898 183.356959 199.36971 183.356959 177.747857 
C 183.356959 156.126005 174.766506 135.386816 159.477547 120.097857 
C 144.188588 104.808899 123.4494 96.218445 101.827547 96.218445 
C 80.205694 96.218445 59.466506 104.808899 44.177547 120.097857 
C 28.888588 135.386816 20.298135 156.126005 20.298135 177.747857 
C 20.298135 199.36971 28.888588 220.108898 44.177547 235.397857 
C 59.466506 250.686816 80.205694 259.277269 101.827547 259.277269 
z
" clip-path="url(#p96acb696db)" style="fill: #ffb462; opacity: 0.5; stroke: #ffb462; stroke-linejoin: miter"/>
   </g>
   <g id="patch_6">
    <path d="M 162.595983 279.022131 
C 184.217835 279.022131 204.957024 270.431678 220.245982 255.142719 
C 235.534941 239.85376 244.125394 219.114572 244.125394 197.492719 
C 244.125394 175.870866 235.534941 155.131678 220.245982 139.842719 
C 204.957024 124.55376 184.217835 115.963307 162.595983 115.963307 
C 140.97413 115.963307 120.234941 124.55376 104.945983 139.842719 
C 89.657024 155.131678 81.066571 175.870866 81.066571 197.492719 
C 81.066571 219.114572 89.657024 239.85376 104.945983 255.142719 
C 120.234941 270.431678 140.97413 279.022131 162.595983 279.022131 
z
" clip-path="url(#p96acb696db)" style="fill: #ff0000; opacity: 0.5; stroke: #ff0000; stroke-linejoin: miter"/>
   </g>
  </g>
 </g>
 <defs>
  <clipPath id="p96acb696db">
   <rect x="7.2" y="7.2" width="277.2" height="277.2"/>
  </clipPath>
 </defs>
</svg>
