<?xml version="1.0" encoding="utf-8" standalone="no"?>
<!DOCTYPE svg PUBLIC "-//W3C//DTD SVG 1.1//EN"
  "http://www.w3.org/Graphics/SVG/1.1/DTD/svg11.dtd">
<svg xmlns:xlink="http://www.w3.org/1999/xlink" width="277.2pt" height="277.2pt" viewBox="0 0 277.2 277.2" xmlns="http://www.w3.org/2000/svg" version="1.1">
 <metadata>
  <rdf:RDF xmlns:dc="http://purl.org/dc/elements/1.1/" xmlns:cc="http://creativecommons.org/ns#" xmlns:rdf="http://www.w3.org/1999/02/22-rdf-syntax-ns#">
   <cc:Work>
    <dc:type rdf:resource="http://purl.org/dc/dcmitype/StillImage"/>
    <dc:date>2022-10-20T23:23:10.447766</dc:date>
    <dc:format>image/svg+xml</dc:format>
    <dc:creator>
     <cc:Agent>
      <dc:title>Matplotlib v3.6.1, https://matplotlib.org/</dc:title>
     </cc:Agent>
    </dc:creator>
   </cc:Work>
  </rdf:RDF>
 </metadata>
 <defs>
  <style type="text/css">*{stroke-linejoin: round; stroke-linecap: butt}</style>
 </defs>
 <g id="figure_1">
  <g id="patch_1">
   <path d="M 0 277.2 
L 277.2 277.2 
L 277.2 0 
L 0 0 
z
" style="fill: #ffffff"/>
  </g>
  <g id="axes_1">
   <g id="patch_2">
    <path d="M 192.952941 220.129412 
C 214.574794 220.129412 235.313982 211.538959 250.602941 196.25 
C 265.8919 180.961041 274.482353 160.221853 274.482353 138.6 
C 274.482353 116.978147 265.8919 96.238959 250.602941 80.95 
C 235.313982 65.661041 214.574794 57.070588 192.952941 57.070588 
C 171.331088 57.070588 150.5919 65.661041 135.302941 80.95 
C 120.013983 96.238959 111.423529 116.978147 111.423529 138.6 
C 111.423529 160.221853 120.013983 180.961041 135.302941 196.25 
C 150.5919 211.538959 171.331088 220.129412 192.952941 220.129412 
z
" clip-path="url(#p7b21a94981)" style="fill: #8000ff; opacity: 0.5; stroke: #8000ff; stroke-linejoin: miter"/>
   </g>
   <g id="patch_3">
    <path d="M 155.395983 168.436693 
C 177.017835 168.436693 197.757024 159.84624 213.045982 144.557281 
C 228.334941 129.268322 236.925394 108.529134 236.925394 86.907281 
C 236.925394 65.285428 228.334941 44.54624 213.045982 29.257281 
C 197.757024 13.968322 177.017835 5.377869 155.395983 5.377869 
C 133.77413 5.377869 113.034941 13.968322 97.745983 29.257281 
C 82.457024 44.54624 73.866571 65.285428 73.866571 86.907281 
C 73.866571 108.529134 82.457024 129.268322 97.745983 144.557281 
C 113.034941 159.84624 133.77413 168.436693 155.395983 168.436693 
z
" clip-path="url(#p7b21a94981)" style="fill: #00b4ec; opacity: 0.5; stroke: #00b4ec; stroke-linejoin: miter"/>
   </g>
   <g id="patch_4">
    <path d="M 94.627547 188.181555 
C 116.2494 188.181555 136.988588 179.591101 152.277547 164.302143 
C 167.566506 149.013184 176.156959 128.273995 176.156959 106.652143 
C 176.156959 85.03029 167.566506 64.291102 152.277547 49.002143 
C 136.988588 33.713184 116.2494 25.122731 94.627547 25.122731 
C 73.005694 25.122731 52.266506 33.713184 36.977547 49.002143 
C 21.688588 64.291102 13.098135 85.03029 13.098135 106.652143 
C 13.098135 128.273995 21.688588 149.013184 36.977547 164.302143 
C 52.266506 179.591101 73.005694 188.181555 94.627547 188.181555 
z
" clip-path="url(#p7b21a94981)" style="fill: #80ffb4; opacity: 0.5; stroke: #80ffb4; stroke-linejoin: miter"/>
   </g>
   <g id="patch_5">
    <path d="M 94.627547 252.077269 
C 116.2494 252.077269 136.988588 243.486816 152.277547 228.197857 
C 167.566506 212.908898 176.156959 192.16971 176.156959 170.547857 
C 176.156959 148.926005 167.566506 128.186816 152.277547 112.897857 
C 136.988588 97.608899 116.2494 89.018445 94.627547 89.018445 
C 73.005694 89.018445 52.266506 97.608899 36.977547 112.897857 
C 21.688588 128.186816 13.098135 148.926005 13.098135 170.547857 
C 13.098135 192.16971 21.688588 212.908898 36.977547 228.197857 
C 52.266506 243.486816 73.005694 252.077269 94.627547 252.077269 
z
" clip-path="url(#p7b21a94981)" style="fill: #ffb462; opacity: 0.5; stroke: #ffb462; stroke-linejoin: miter"/>
   </g>
   <g id="patch_6">
    <path d="M 155.395983 271.822131 
C 177.017835 271.822131 197.757024 263.231678 213.045982 247.942719 
C 228.334941 232.65376 236.925394 211.914572 236.925394 190.292719 
C 236.925394 168.670866 228.334941 147.931678 213.045982 132.642719 
C 197.757024 117.35376 177.017835 108.763307 155.395983 108.763307 
C 133.77413 108.763307 113.034941 117.35376 97.745983 132.642719 
C 82.457024 147.931678 73.866571 168.670866 73.866571 190.292719 
C 73.866571 211.914572 82.457024 232.65376 97.745983 247.942719 
C 113.034941 263.231678 133.77413 271.822131 155.395983 271.822131 
z
" clip-path="url(#p7b21a94981)" style="fill: #ff0000; opacity: 0.5; stroke: #ff0000; stroke-linejoin: miter"/>
   </g>
  </g>
 </g>
 <defs>
  <clipPath id="p7b21a94981">
   <rect x="0" y="0" width="277.2" height="277.2"/>
  </clipPath>
 </defs>
</svg>
